<svg id="visual" viewBox="0 0 900 600" width="900" height="600" xmlns="http://www.w3.org/2000/svg" xmlns:xlink="http://www.w3.org/1999/xlink" version="1.1"><g stroke-width="1" stroke-linejoin="bevel"><path d="M519 265L609 212L493 220Z" fill="#297ea6" stroke="#297ea6"></path><path d="M519 265L600 280L609 212Z" fill="#277297" stroke="#277297"></path><path d="M609 212L569 135L493 220Z" fill="#205a7a" stroke="#205a7a"></path><path d="M434 112L406 223L493 220Z" fill="#0c2435" stroke="#0c2435"></path><path d="M493 220L406 223L519 265Z" fill="#1d4e6b" stroke="#1d4e6b"></path><path d="M722 169L668 129L609 212Z" fill="#297ea6" stroke="#297ea6"></path><path d="M609 212L668 129L569 135Z" fill="#00101c" stroke="#00101c"></path><path d="M603 0L517 71L569 135Z" fill="#297ea6" stroke="#297ea6"></path><path d="M569 135L434 112L493 220Z" fill="#19435d" stroke="#19435d"></path><path d="M517 71L434 112L569 135Z" fill="#1d4e6b" stroke="#1d4e6b"></path><path d="M600 280L695 281L609 212Z" fill="#0c2435" stroke="#0c2435"></path><path d="M695 281L722 169L609 212Z" fill="#081a28" stroke="#081a28"></path><path d="M365 312L483 400L519 265Z" fill="#112e42" stroke="#112e42"></path><path d="M519 265L566 418L600 280Z" fill="#15384f" stroke="#15384f"></path><path d="M600 280L695 406L695 281Z" fill="#00101c" stroke="#00101c"></path><path d="M483 400L566 418L519 265Z" fill="#0c2435" stroke="#0c2435"></path><path d="M329 289L365 312L406 223Z" fill="#00101c" stroke="#00101c"></path><path d="M406 223L365 312L519 265Z" fill="#00101c" stroke="#00101c"></path><path d="M517 71L380 0L434 112Z" fill="#246688" stroke="#246688"></path><path d="M603 0L522 0L517 71Z" fill="#0c2435" stroke="#0c2435"></path><path d="M603 0L569 135L668 129Z" fill="#297ea6" stroke="#297ea6"></path><path d="M732 0L603 0L668 129Z" fill="#00101c" stroke="#00101c"></path><path d="M314 214L329 289L406 223Z" fill="#205a7a" stroke="#205a7a"></path><path d="M365 312L367 373L483 400Z" fill="#246688" stroke="#246688"></path><path d="M270 70L314 214L434 112Z" fill="#277297" stroke="#277297"></path><path d="M434 112L314 214L406 223Z" fill="#246688" stroke="#246688"></path><path d="M566 418L695 406L600 280Z" fill="#277297" stroke="#277297"></path><path d="M695 281L785 266L722 169Z" fill="#0c2435" stroke="#0c2435"></path><path d="M792 371L785 266L695 281Z" fill="#15384f" stroke="#15384f"></path><path d="M333 365L367 373L365 312Z" fill="#00101c" stroke="#00101c"></path><path d="M785 266L813 217L722 169Z" fill="#205a7a" stroke="#205a7a"></path><path d="M722 169L808 106L668 129Z" fill="#0c2435" stroke="#0c2435"></path><path d="M166 283L333 365L329 289Z" fill="#15384f" stroke="#15384f"></path><path d="M329 289L333 365L365 312Z" fill="#1d4e6b" stroke="#1d4e6b"></path><path d="M522 0L380 0L517 71Z" fill="#0c2435" stroke="#0c2435"></path><path d="M813 217L808 106L722 169Z" fill="#205a7a" stroke="#205a7a"></path><path d="M808 106L732 0L668 129Z" fill="#1d4e6b" stroke="#1d4e6b"></path><path d="M695 406L792 371L695 281Z" fill="#205a7a" stroke="#205a7a"></path><path d="M785 266L900 270L813 217Z" fill="#297ea6" stroke="#297ea6"></path><path d="M566 418L699 468L695 406Z" fill="#15384f" stroke="#15384f"></path><path d="M695 406L760 486L792 371Z" fill="#277297" stroke="#277297"></path><path d="M592 521L699 468L566 418Z" fill="#205a7a" stroke="#205a7a"></path><path d="M592 521L566 418L506 539Z" fill="#15384f" stroke="#15384f"></path><path d="M566 418L483 400L506 539Z" fill="#19435d" stroke="#19435d"></path><path d="M506 539L483 400L436 538Z" fill="#205a7a" stroke="#205a7a"></path><path d="M808 106L782 0L732 0Z" fill="#277297" stroke="#277297"></path><path d="M380 0L270 70L434 112Z" fill="#1d4e6b" stroke="#1d4e6b"></path><path d="M215 422L317 495L333 365Z" fill="#246688" stroke="#246688"></path><path d="M436 538L483 400L367 373Z" fill="#081a28" stroke="#081a28"></path><path d="M733 600L760 486L699 468Z" fill="#00101c" stroke="#00101c"></path><path d="M699 468L760 486L695 406Z" fill="#297ea6" stroke="#297ea6"></path><path d="M631 600L699 468L592 521Z" fill="#246688" stroke="#246688"></path><path d="M317 495L436 538L367 373Z" fill="#00101c" stroke="#00101c"></path><path d="M380 0L286 0L270 70Z" fill="#0c2435" stroke="#0c2435"></path><path d="M900 270L900 165L813 217Z" fill="#15384f" stroke="#15384f"></path><path d="M813 217L900 165L808 106Z" fill="#0c2435" stroke="#0c2435"></path><path d="M808 106L900 63L782 0Z" fill="#205a7a" stroke="#205a7a"></path><path d="M900 270L785 266L792 371Z" fill="#112e42" stroke="#112e42"></path><path d="M900 428L900 270L792 371Z" fill="#1d4e6b" stroke="#1d4e6b"></path><path d="M333 365L317 495L367 373Z" fill="#277297" stroke="#277297"></path><path d="M166 283L329 289L314 214Z" fill="#277297" stroke="#277297"></path><path d="M177 0L190 113L270 70Z" fill="#19435d" stroke="#19435d"></path><path d="M270 70L190 113L314 214Z" fill="#297ea6" stroke="#297ea6"></path><path d="M900 165L900 63L808 106Z" fill="#1d4e6b" stroke="#1d4e6b"></path><path d="M190 113L168 205L314 214Z" fill="#246688" stroke="#246688"></path><path d="M380 600L505 600L436 538Z" fill="#00101c" stroke="#00101c"></path><path d="M436 538L505 600L506 539Z" fill="#19435d" stroke="#19435d"></path><path d="M506 539L505 600L592 521Z" fill="#19435d" stroke="#19435d"></path><path d="M168 205L166 283L314 214Z" fill="#00101c" stroke="#00101c"></path><path d="M505 600L631 600L592 521Z" fill="#205a7a" stroke="#205a7a"></path><path d="M166 283L215 422L333 365Z" fill="#205a7a" stroke="#205a7a"></path><path d="M900 478L900 428L760 486Z" fill="#297ea6" stroke="#297ea6"></path><path d="M760 486L900 428L792 371Z" fill="#081a28" stroke="#081a28"></path><path d="M124 429L225 464L215 422Z" fill="#19435d" stroke="#19435d"></path><path d="M215 422L225 464L317 495Z" fill="#246688" stroke="#246688"></path><path d="M317 495L380 600L436 538Z" fill="#0c2435" stroke="#0c2435"></path><path d="M900 63L900 0L782 0Z" fill="#246688" stroke="#246688"></path><path d="M302 600L380 600L317 495Z" fill="#205a7a" stroke="#205a7a"></path><path d="M631 600L733 600L699 468Z" fill="#246688" stroke="#246688"></path><path d="M190 113L84 115L168 205Z" fill="#19435d" stroke="#19435d"></path><path d="M286 0L177 0L270 70Z" fill="#19435d" stroke="#19435d"></path><path d="M822 600L900 478L760 486Z" fill="#112e42" stroke="#112e42"></path><path d="M225 464L302 600L317 495Z" fill="#081a28" stroke="#081a28"></path><path d="M733 600L822 600L760 486Z" fill="#277297" stroke="#277297"></path><path d="M166 283L124 429L215 422Z" fill="#205a7a" stroke="#205a7a"></path><path d="M225 464L189 600L302 600Z" fill="#00101c" stroke="#00101c"></path><path d="M67 264L124 429L166 283Z" fill="#19435d" stroke="#19435d"></path><path d="M67 264L166 283L168 205Z" fill="#112e42" stroke="#112e42"></path><path d="M177 0L84 115L190 113Z" fill="#246688" stroke="#246688"></path><path d="M84 115L74 174L168 205Z" fill="#277297" stroke="#277297"></path><path d="M74 174L67 264L168 205Z" fill="#277297" stroke="#277297"></path><path d="M822 600L900 600L900 478Z" fill="#277297" stroke="#277297"></path><path d="M71 531L189 600L225 464Z" fill="#15384f" stroke="#15384f"></path><path d="M84 115L0 186L74 174Z" fill="#205a7a" stroke="#205a7a"></path><path d="M74 174L0 186L67 264Z" fill="#205a7a" stroke="#205a7a"></path><path d="M177 0L62 0L84 115Z" fill="#15384f" stroke="#15384f"></path><path d="M0 78L0 186L84 115Z" fill="#15384f" stroke="#15384f"></path><path d="M67 264L0 365L124 429Z" fill="#081a28" stroke="#081a28"></path><path d="M124 429L71 531L225 464Z" fill="#081a28" stroke="#081a28"></path><path d="M0 186L0 298L67 264Z" fill="#246688" stroke="#246688"></path><path d="M62 0L0 78L84 115Z" fill="#19435d" stroke="#19435d"></path><path d="M0 298L0 365L67 264Z" fill="#246688" stroke="#246688"></path><path d="M0 506L71 531L124 429Z" fill="#297ea6" stroke="#297ea6"></path><path d="M71 531L108 600L189 600Z" fill="#0c2435" stroke="#0c2435"></path><path d="M62 0L0 0L0 78Z" fill="#205a7a" stroke="#205a7a"></path><path d="M0 365L0 506L124 429Z" fill="#0c2435" stroke="#0c2435"></path><path d="M71 531L0 600L108 600Z" fill="#19435d" stroke="#19435d"></path><path d="M0 506L0 600L71 531Z" fill="#00101c" stroke="#00101c"></path></g></svg>